<svg xmlns="http://www.w3.org/2000/svg" width="465" height="112" viewBox="0 0 465 112" font-family="ui-monospace, SFMono-Regular, 'Cascadia Code', Menlo, Consolas, monospace">
<rect x="0" y="0" width="465" height="112" rx="14" fill="#0e1016"/>
<style>.lcell{opacity:0;animation-duration:4.4s;animation-iteration-count:infinite;animation-timing-function:ease-out}.num{opacity:0;animation-duration:4.4s;animation-iteration-count:infinite}@keyframes c0{0%{opacity:0}2%,88%{opacity:1}95%,100%{opacity:0}}@keyframes c1{0%,3.67%{opacity:0}5.67%,88%{opacity:1}95%,100%{opacity:0}}@keyframes c2{0%,7.33%{opacity:0}9.33%,88%{opacity:1}95%,100%{opacity:0}}@keyframes c3{0%,11%{opacity:0}13%,88%{opacity:1}95%,100%{opacity:0}}@keyframes c4{0%,14.67%{opacity:0}16.67%,88%{opacity:1}95%,100%{opacity:0}}@keyframes c5{0%,18.33%{opacity:0}20.33%,88%{opacity:1}95%,100%{opacity:0}}@keyframes c6{0%,22%{opacity:0}24%,88%{opacity:1}95%,100%{opacity:0}}@keyframes c7{0%,25.67%{opacity:0}27.67%,88%{opacity:1}95%,100%{opacity:0}}@keyframes c8{0%,29.33%{opacity:0}31.33%,88%{opacity:1}95%,100%{opacity:0}}@keyframes c9{0%,33%{opacity:0}35%,88%{opacity:1}95%,100%{opacity:0}}@keyframes c10{0%,36.67%{opacity:0}38.67%,88%{opacity:1}95%,100%{opacity:0}}@keyframes c11{0%,40.33%{opacity:0}42.33%,88%{opacity:1}95%,100%{opacity:0}}@keyframes c12{0%,44%{opacity:0}46%,88%{opacity:1}95%,100%{opacity:0}}@keyframes c13{0%,47.67%{opacity:0}49.67%,88%{opacity:1}95%,100%{opacity:0}}@keyframes c14{0%,51.33%{opacity:0}53.33%,88%{opacity:1}95%,100%{opacity:0}}@keyframes c15{0%,55%{opacity:0}57%,88%{opacity:1}95%,100%{opacity:0}}@keyframes c16{0%,58.67%{opacity:0}60.67%,88%{opacity:1}95%,100%{opacity:0}}@keyframes c17{0%,62.33%{opacity:0}64.33%,88%{opacity:1}95%,100%{opacity:0}}@keyframes n0{0%,2%{opacity:0}3%,18%{opacity:1}19%,100%{opacity:0}}@keyframes n1{0%,18%{opacity:0}19%,40%{opacity:1}41%,100%{opacity:0}}@keyframes n2{0%,40%{opacity:0}41%,62%{opacity:1}63%,100%{opacity:0}}@keyframes n3{0%,62%{opacity:0}63%,90%{opacity:1}91%,100%{opacity:0}}</style><text x="26" y="34" font-size="13" font-weight="700" fill="rgb(210,212,222)">Context bar — fills up, color shifts green → red</text><rect x="26" y="60" width="413.0" height="26" rx="7" fill="rgb(58,62,72)"/><text x="35" y="78.1" font-size="15" font-weight="700" class="num" style="animation-name:n0" fill="rgb(50,255,160)">28%<tspan fill="rgb(168,162,172)" font-weight="400"> / 200k</tspan></text><text x="35" y="78.1" font-size="15" font-weight="700" class="num" style="animation-name:n1" fill="rgb(200,255,50)">58%<tspan fill="rgb(168,162,172)" font-weight="400"> / 200k</tspan></text><text x="35" y="78.1" font-size="15" font-weight="700" class="num" style="animation-name:n2" fill="rgb(255,120,30)">84%<tspan fill="rgb(168,162,172)" font-weight="400"> / 200k</tspan></text><text x="35" y="78.1" font-size="15" font-weight="700" class="num" style="animation-name:n3" fill="rgb(255,50,50)">97%<tspan fill="rgb(168,162,172)" font-weight="400"> / 200k</tspan></text><rect x="145" y="69" width="13" height="8" rx="2" fill="rgb(113,117,127)"/><rect x="161" y="69" width="13" height="8" rx="2" fill="rgb(113,117,127)"/><rect x="177" y="69" width="13" height="8" rx="2" fill="rgb(113,117,127)"/><rect x="193" y="69" width="13" height="8" rx="2" fill="rgb(113,117,127)"/><rect x="209" y="69" width="13" height="8" rx="2" fill="rgb(113,117,127)"/><rect x="225" y="69" width="13" height="8" rx="2" fill="rgb(113,117,127)"/><rect x="241" y="69" width="13" height="8" rx="2" fill="rgb(113,117,127)"/><rect x="257" y="69" width="13" height="8" rx="2" fill="rgb(113,117,127)"/><rect x="273" y="69" width="13" height="8" rx="2" fill="rgb(113,117,127)"/><rect x="289" y="69" width="13" height="8" rx="2" fill="rgb(113,117,127)"/><rect x="305" y="69" width="13" height="8" rx="2" fill="rgb(113,117,127)"/><rect x="321" y="69" width="13" height="8" rx="2" fill="rgb(113,117,127)"/><rect x="337" y="69" width="13" height="8" rx="2" fill="rgb(113,117,127)"/><rect x="353" y="69" width="13" height="8" rx="2" fill="rgb(113,117,127)"/><rect x="369" y="69" width="13" height="8" rx="2" fill="rgb(113,117,127)"/><rect x="385" y="69" width="13" height="8" rx="2" fill="rgb(113,117,127)"/><rect x="401" y="69" width="13" height="8" rx="2" fill="rgb(113,117,127)"/><rect x="417" y="69" width="13" height="8" rx="2" fill="rgb(113,117,127)"/><rect x="145" y="69" width="13" height="8" rx="2" fill="rgb(50,255,160)" class="lcell" style="animation-name:c0"/><rect x="161" y="69" width="13" height="8" rx="2" fill="rgb(50,255,160)" class="lcell" style="animation-name:c1"/><rect x="177" y="69" width="13" height="8" rx="2" fill="rgb(50,255,160)" class="lcell" style="animation-name:c2"/><rect x="193" y="69" width="13" height="8" rx="2" fill="rgb(50,255,160)" class="lcell" style="animation-name:c3"/><rect x="209" y="69" width="13" height="8" rx="2" fill="rgb(50,255,160)" class="lcell" style="animation-name:c4"/><rect x="225" y="69" width="13" height="8" rx="2" fill="rgb(50,255,160)" class="lcell" style="animation-name:c5"/><rect x="241" y="69" width="13" height="8" rx="2" fill="rgb(50,255,160)" class="lcell" style="animation-name:c6"/><rect x="257" y="69" width="13" height="8" rx="2" fill="rgb(200,255,50)" class="lcell" style="animation-name:c7"/><rect x="273" y="69" width="13" height="8" rx="2" fill="rgb(200,255,50)" class="lcell" style="animation-name:c8"/><rect x="289" y="69" width="13" height="8" rx="2" fill="rgb(200,255,50)" class="lcell" style="animation-name:c9"/><rect x="305" y="69" width="13" height="8" rx="2" fill="rgb(200,255,50)" class="lcell" style="animation-name:c10"/><rect x="321" y="69" width="13" height="8" rx="2" fill="rgb(255,210,30)" class="lcell" style="animation-name:c11"/><rect x="337" y="69" width="13" height="8" rx="2" fill="rgb(255,210,30)" class="lcell" style="animation-name:c12"/><rect x="353" y="69" width="13" height="8" rx="2" fill="rgb(255,210,30)" class="lcell" style="animation-name:c13"/><rect x="369" y="69" width="13" height="8" rx="2" fill="rgb(255,120,30)" class="lcell" style="animation-name:c14"/><rect x="385" y="69" width="13" height="8" rx="2" fill="rgb(255,120,30)" class="lcell" style="animation-name:c15"/><rect x="401" y="69" width="13" height="8" rx="2" fill="rgb(255,50,50)" class="lcell" style="animation-name:c16"/><rect x="417" y="69" width="13" height="8" rx="2" fill="rgb(255,50,50)" class="lcell" style="animation-name:c17"/>
</svg>
